# xmcd
#
# Track frame offsets:
#	150
#	19647
#	46642
#
# Disc length: 954 seconds
#
# Revision: 0
# Processed by: cddbd v1.5.2PL0 Copyright (c) Steve Scherf et al.
# Submitted via: audiograbber 1.83.01
#
DISCID=1403b803
DTITLE=Sitruunapippuri - M‰ Haluun Lent‰‰ [CDS)
DYEAR=1997
DGENRE=Dance
TTITLE0=M‰ Haluun Lent‰‰
TTITLE1=M‰ Haluun Lent‰‰ (Extended)
TTITLE2=M‰ Haluun Lent‰‰ (Rake's House)
EXTD=TR.
EXTT0=
EXTT1=
EXTT2=
PLAYORDER=
